<svg xmlns="http://www.w3.org/2000/svg" viewBox="0 0 48 48">
 <defs>
  <linearGradient id="a" x1="1" x2="47" gradientUnits="userSpaceOnUse" gradientTransform="rotate(-90 24 24)">
   <stop stop-color="#e4e4e4"/>
   <stop offset="1" stop-color="#eee"/>
  </linearGradient>
 </defs>
 <g>
  <path d="M36.31 5c5.86 4.062 9.688 10.83 9.688 18.5 0 12.426-10.07 22.5-22.5 22.5-7.67 0-14.438-3.828-18.5-9.688a23.24 23.24 0 0 0 3.78 4.97 22.923 22.923 0 0 0 15.47 5.968c12.703 0 23-10.298 23-23a22.92 22.92 0 0 0-5.97-15.47A23.216 23.216 0 0 0 36.31 5zm4.97 3.78a22.91 22.91 0 0 1 6.218 15.72c0 12.703-10.297 23-23 23a22.91 22.91 0 0 1-15.72-6.22C12.94 45.426 18.663 48 25 48c12.703 0 23-10.298 23-23 0-6.335-2.575-12.06-6.72-16.22z" opacity=".05"/>
  <path d="M41.28 8.78a22.923 22.923 0 0 1 5.97 15.47c0 12.703-10.298 23-23 23a22.92 22.92 0 0 1-15.47-5.97A22.91 22.91 0 0 0 24.5 47.5c12.702 0 23-10.298 23-23a22.91 22.91 0 0 0-6.22-15.72z" opacity=".1"/>
  <path d="M31.25 2.375C39.865 5.53 46 13.792 46 23.505c0 12.426-10.07 22.5-22.5 22.5-9.708 0-17.97-6.135-21.12-14.75a23 23 0 0 0 44.875-7 23 23 0 0 0-16-21.875z" opacity=".2"/>
 </g>
 <g>
  <path d="M24 1c12.703 0 23 10.297 23 23S36.703 47 24 47 1 36.703 1 24 11.297 1 24 1z" fill="url(#a)"/>
 </g>
 <g>
  <path d="M40.03 7.53A22.922 22.922 0 0 1 46 23C46 35.703 35.7 46 23 46a22.92 22.92 0 0 1-15.47-5.97C11.708 44.323 17.54 47 24 47 36.7 47 47 36.702 47 24c0-6.462-2.678-12.29-6.97-16.47z" opacity=".1"/>
 </g>
 <g fill="#0071c6">
  <path d="M27 17v4.783L28.678 23h.182l7.138-5c0-.563-.395-1-1-1z"/>
  <path d="M27.02 23.533l1.514 1.03c.214.154.47 0 .47 0-.256.154 6.996-4.564 6.996-4.564v9c0 .61-.305 1-1 1h-7.998z"/>
  <g>
   <path d="M19.182 21.37c-.516 0-.927.24-1.23.72-.304.477-.456 1.11-.456 1.9 0 .8.152 1.433.455 1.898.305.466.703.698 1.195.698.508 0 .91-.226 1.208-.68.297-.45.447-1.08.447-1.883 0-.837-.144-1.49-.433-1.955-.29-.465-.684-.698-1.185-.698z"/>
   <path d="M12 15v18l14 3V12zm9.453 11.992c-.597.777-1.375 1.167-2.336 1.167-.936 0-1.698-.378-2.287-1.13-.59-.754-.885-1.735-.885-2.945 0-1.277.3-2.31.898-3.1.6-.787 1.392-1.182 2.38-1.182.93 0 1.686.377 2.26 1.132.577.755.865 1.75.865 2.986 0 1.27-.298 2.295-.895 3.072z"/>
  </g>
 </g>
</svg>
